<svg width="18" height="19" viewBox="0 0 18 19" fill="none" xmlns="http://www.w3.org/2000/svg">
<rect y="0.5" width="18" height="18" rx="9" fill="white"/>
<path d="M6.12469 6.788C4.90869 6.788 3.93269 7.532 3.93269 8.7C3.93269 9.772 4.80469 10.468 5.86069 10.468C6.38869 10.468 6.80469 10.324 7.11669 10.06C7.02869 10.908 6.50069 11.356 5.70869 11.356C5.34869 11.356 4.99669 11.292 4.67669 11.068L4.10069 12.204C4.50869 12.468 5.11669 12.612 5.74069 12.612C7.51669 12.612 8.72469 11.5 8.72469 9.548C8.72469 7.732 7.70069 6.788 6.12469 6.788ZM6.23669 9.332C5.78069 9.332 5.46869 9.06 5.46869 8.628C5.46869 8.188 5.78069 7.916 6.22869 7.916C6.70869 7.916 7.01269 8.204 7.01269 8.62C7.01269 9.044 6.69269 9.332 6.23669 9.332ZM11.32 6.788C10.104 6.788 9.128 7.532 9.128 8.7C9.128 9.772 10 10.468 11.056 10.468C11.584 10.468 12 10.324 12.312 10.06C12.224 10.908 11.696 11.356 10.904 11.356C10.544 11.356 10.192 11.292 9.872 11.068L9.296 12.204C9.704 12.468 10.312 12.612 10.936 12.612C12.712 12.612 13.92 11.5 13.92 9.548C13.92 7.732 12.896 6.788 11.32 6.788ZM11.432 9.332C10.976 9.332 10.664 9.06 10.664 8.628C10.664 8.188 10.976 7.916 11.424 7.916C11.904 7.916 12.208 8.204 12.208 8.62C12.208 9.044 11.888 9.332 11.432 9.332Z" fill="#141414"/>
</svg>
